<mxfile host="app.diagrams.net" modified="2024-03-11T13:56:07.930Z" agent="Mozilla/5.0 (Windows NT 10.0; Win64; x64) AppleWebKit/537.36 (KHTML, like Gecko) Chrome/122.0.0.0 Safari/537.36" version="24.0.4" etag="UxwZkcC4PLkg2u2fLiOH" type="github">
  <diagram name="第 1 页" id="FSj_e0Sj-Y8vh16fAibe">
    <mxGraphModel>
      <root>
        <mxCell id="0" />
        <mxCell id="1" parent="0" />
      </root>
    </mxGraphModel>
  </diagram>
</mxfile>
